<svg width="48" height="64" viewBox="0 0 48 64" fill="none" xmlns="http://www.w3.org/2000/svg">
<path d="M35 8H40C44.4125 8 48 11.5875 48 16V56C48 60.4125 44.4125 64 40 64H8C3.5875 64 0 60.4125 0 56V16C0 11.5875 3.5875 8 8 8H13H14.2C15.125 3.4375 19.1625 0 24 0C28.8375 0 32.875 3.4375 33.8 8H35ZM8 14C6.9 14 6 14.9 6 16V56C6 57.1 6.9 58 8 58H40C41.1 58 42 57.1 42 56V16C42 14.9 41.1 14 40 14H38V17C38 18.6625 36.6625 20 35 20H24H13C11.3375 20 10 18.6625 10 17V14H8ZM24 13C24.7956 13 25.5587 12.6839 26.1213 12.1213C26.6839 11.5587 27 10.7956 27 10C27 9.20435 26.6839 8.44129 26.1213 7.87868C25.5587 7.31607 24.7956 7 24 7C23.2044 7 22.4413 7.31607 21.8787 7.87868C21.3161 8.44129 21 9.20435 21 10C21 10.7956 21.3161 11.5587 21.8787 12.1213C22.4413 12.6839 23.2044 13 24 13Z" fill="white"/>
</svg>
