<svg width="24" height="24" viewBox="0 0 24 24" fill="none" xmlns="http://www.w3.org/2000/svg">
  <path fill-rule="evenodd" clip-rule="evenodd"
        d="M16.598 3H14.7293H14.2808C13.9351 1.28906 12.4262 0 10.6182 0C8.81024 0 7.30128 1.28906 6.95557 3H6.50708H4.6384C2.98928 3 1.6485 4.34531 1.6485 6V21C1.6485 22.6547 2.98928 24 4.6384 24H16.598C18.2471 24 19.5879 22.6547 19.5879 21V11.9404L17.3455 14.2035V21C17.3455 21.4125 17.0091 21.75 16.598 21.75H4.6384C4.22729 21.75 3.89092 21.4125 3.89092 21V6C3.89092 5.5875 4.22729 5.25 4.6384 5.25H5.38587V6.375C5.38587 6.99844 5.88575 7.5 6.50708 7.5H10.6182H14.7293C15.3506 7.5 15.8505 6.99844 15.8505 6.375V5.25H16.598C17.0091 5.25 17.3455 5.5875 17.3455 6V9.58809L19.5879 7.35484V6C19.5879 4.34531 18.2471 3 16.598 3ZM11.411 4.5455C11.2007 4.75647 10.9156 4.875 10.6182 4.875C10.3208 4.875 10.0356 4.75647 9.82538 4.5455C9.61511 4.33452 9.49698 4.04837 9.49698 3.75C9.49698 3.45163 9.61511 3.16548 9.82538 2.9545C10.0356 2.74353 10.3208 2.625 10.6182 2.625C10.9156 2.625 11.2007 2.74353 11.411 2.9545C11.6213 3.16548 11.7394 3.45163 11.7394 3.75C11.7394 4.04837 11.6213 4.33452 11.411 4.5455Z"
        fill="currentColor"/>
  <path
    d="M22.0467 7.14001C22.3885 7.48026 22.3885 8.03045 22.0467 8.36708L12.4489 17.9266C12.1071 18.2669 11.5545 18.2669 11.2164 17.9266L6.26845 13.0039C5.92671 12.6636 5.92671 12.1134 6.26845 11.7768C6.61019 11.4402 7.1628 11.4366 7.5009 11.7768L11.8272 16.0842L20.8107 7.14001C21.1524 6.79976 21.705 6.79976 22.0431 7.14001H22.0467Z"
    fill="currentColor"/>
</svg>
